<svg xmlns="http://www.w3.org/2000/svg" viewBox="0 0 32 32">
  <rect width="32" height="32" fill="#ffffff"/>
  <!-- J with horizontal stripes (dark) -->
  <g fill="#1F2937">
    <rect x="3" y="4" width="10" height="1.5"/>
    <rect x="3" y="6.5" width="10" height="1.5"/>
    <rect x="3" y="9" width="10" height="1.5"/>
    <rect x="3" y="11.5" width="10" height="1.5"/>
    <rect x="7" y="14" width="6" height="1.5"/>
    <rect x="7" y="16.5" width="6" height="1.5"/>
    <rect x="7" y="19" width="6" height="1.5"/>
    <rect x="3" y="21.5" width="10" height="1.5"/>
    <rect x="3" y="24" width="8" height="1.5"/>
  </g>
  <!-- M with horizontal stripes (blue) -->
  <g fill="#5BA4D4">
    <rect x="15" y="4" width="14" height="1.5"/>
    <rect x="15" y="6.5" width="14" height="1.5"/>
    <rect x="15" y="9" width="6" height="1.5"/>
    <rect x="23" y="9" width="6" height="1.5"/>
    <rect x="15" y="11.5" width="6" height="1.5"/>
    <rect x="23" y="11.5" width="6" height="1.5"/>
    <rect x="15" y="14" width="6" height="1.5"/>
    <rect x="23" y="14" width="6" height="1.5"/>
    <rect x="15" y="16.5" width="6" height="1.5"/>
    <rect x="23" y="16.5" width="6" height="1.5"/>
    <rect x="15" y="19" width="6" height="1.5"/>
    <rect x="23" y="19" width="6" height="1.5"/>
    <rect x="15" y="21.5" width="6" height="1.5"/>
    <rect x="23" y="21.5" width="6" height="1.5"/>
    <rect x="15" y="24" width="6" height="1.5"/>
    <rect x="23" y="24" width="6" height="1.5"/>
  </g>
</svg>
